<mxfile host="app.diagrams.net" modified="2024-05-10T03:45:58.442Z" agent="Mozilla/5.0 (Windows NT 10.0; Win64; x64) AppleWebKit/537.36 (KHTML, like Gecko) Chrome/124.0.0.0 Safari/537.36" etag="bdhoLRkv970n5NEosSxy" version="24.3.1" type="github">
  <diagram id="6a731a19-8d31-9384-78a2-239565b7b9f0" name="Page-1">
    <mxGraphModel dx="2856" dy="868" grid="1" gridSize="10" guides="1" tooltips="1" connect="1" arrows="1" fold="1" page="1" pageScale="1" pageWidth="1169" pageHeight="827" background="none" math="0" shadow="0">
      <root>
        <mxCell id="0" />
        <mxCell id="1" parent="0" />
        <mxCell id="lf54vUO4yfvzCYdia2Iv-1793" value="&amp;nbsp;P - Engine" style="rounded=1;whiteSpace=wrap;html=1;shadow=0;labelBackgroundColor=none;strokeColor=#6c8ebf;strokeWidth=3;fillColor=#dae8fc;fontFamily=Helvetica;fontSize=16;align=center;fontStyle=1;spacing=5;arcSize=7;perimeterSpacing=2;verticalAlign=top;" vertex="1" parent="1">
          <mxGeometry x="-520" y="120" width="960" height="560" as="geometry" />
        </mxCell>
        <mxCell id="lf54vUO4yfvzCYdia2Iv-1794" value="PS data Editor" style="rounded=1;whiteSpace=wrap;html=1;shadow=0;labelBackgroundColor=none;strokeColor=#82b366;strokeWidth=3;fillColor=#d5e8d4;fontFamily=Helvetica;fontSize=16;align=center;fontStyle=1;spacing=5;arcSize=7;perimeterSpacing=2;verticalAlign=top;" vertex="1" parent="1">
          <mxGeometry x="-480" y="203" width="240" height="197" as="geometry" />
        </mxCell>
        <mxCell id="lf54vUO4yfvzCYdia2Iv-1795" value="PS data Viewer" style="rounded=1;whiteSpace=wrap;html=1;shadow=0;labelBackgroundColor=none;strokeColor=#82b366;strokeWidth=3;fillColor=#d5e8d4;fontFamily=Helvetica;fontSize=16;align=center;fontStyle=1;spacing=5;arcSize=7;perimeterSpacing=2;verticalAlign=top;" vertex="1" parent="1">
          <mxGeometry x="-200" y="203" width="600" height="440" as="geometry" />
        </mxCell>
        <mxCell id="lf54vUO4yfvzCYdia2Iv-1785" value="Homepage" style="rounded=1;whiteSpace=wrap;html=1;shadow=0;labelBackgroundColor=none;strokeColor=none;strokeWidth=3;fillColor=#2F5B7C;fontFamily=Helvetica;fontSize=16;fontColor=#FFFFFF;align=center;fontStyle=1;spacing=5;arcSize=7;perimeterSpacing=2;" vertex="1" parent="1">
          <mxGeometry x="480" y="120" width="120" height="40" as="geometry" />
        </mxCell>
        <mxCell id="lf54vUO4yfvzCYdia2Iv-1787" value="IMT" style="rounded=1;whiteSpace=wrap;html=1;shadow=0;labelBackgroundColor=none;strokeColor=none;strokeWidth=3;fillColor=#e85642;fontFamily=Helvetica;fontSize=16;fontColor=#FFFFFF;align=center;spacing=5;fontStyle=1;arcSize=7;perimeterSpacing=2;" vertex="1" parent="1">
          <mxGeometry x="-165" y="560" width="80" height="40" as="geometry" />
        </mxCell>
        <mxCell id="1749" value="&amp;nbsp; Hestia" style="rounded=1;whiteSpace=wrap;html=1;shadow=0;labelBackgroundColor=none;strokeColor=none;strokeWidth=3;fillColor=#2F5B7C;fontFamily=Helvetica;fontSize=16;fontColor=#FFFFFF;align=left;fontStyle=1;spacing=5;arcSize=7;perimeterSpacing=2;verticalAlign=top;" parent="1" vertex="1">
          <mxGeometry x="-165" y="260" width="525" height="120" as="geometry" />
        </mxCell>
        <mxCell id="1760" value="Hestia 3D (PsDataViewer)" style="rounded=1;whiteSpace=wrap;html=1;shadow=0;labelBackgroundColor=none;strokeColor=none;strokeWidth=3;fillColor=#1699d3;fontFamily=Helvetica;fontSize=14;fontColor=#FFFFFF;align=center;spacing=5;fontStyle=1;arcSize=7;perimeterSpacing=2;" parent="1" vertex="1">
          <mxGeometry x="-145" y="300" width="150" height="60" as="geometry" />
        </mxCell>
        <mxCell id="1771" value="Hestia Web" style="rounded=1;whiteSpace=wrap;html=1;shadow=0;labelBackgroundColor=none;strokeColor=none;strokeWidth=3;fillColor=#12aab5;fontFamily=Helvetica;fontSize=14;fontColor=#FFFFFF;align=center;spacing=5;fontStyle=1;arcSize=7;perimeterSpacing=2;" parent="1" vertex="1">
          <mxGeometry x="195" y="299.9999999999999" width="150" height="60" as="geometry" />
        </mxCell>
        <mxCell id="lf54vUO4yfvzCYdia2Iv-1779" value="Hestia 2D (android/ios)" style="rounded=1;whiteSpace=wrap;html=1;shadow=0;labelBackgroundColor=none;strokeColor=none;strokeWidth=3;fillColor=#1699d3;fontFamily=Helvetica;fontSize=14;fontColor=#FFFFFF;align=center;spacing=5;fontStyle=1;arcSize=7;perimeterSpacing=2;" vertex="1" parent="1">
          <mxGeometry x="25" y="300" width="150" height="60" as="geometry" />
        </mxCell>
        <mxCell id="1753" value="&amp;nbsp; Eitri" style="rounded=1;whiteSpace=wrap;html=1;shadow=0;labelBackgroundColor=none;strokeColor=none;strokeWidth=3;fillColor=#e85642;fontFamily=Helvetica;fontSize=16;fontColor=#FFFFFF;align=left;spacing=5;fontStyle=1;arcSize=7;perimeterSpacing=2;verticalAlign=top;" parent="1" vertex="1">
          <mxGeometry x="-165" y="400" width="525" height="121" as="geometry" />
        </mxCell>
        <mxCell id="lf54vUO4yfvzCYdia2Iv-1782" value="Mobile" style="rounded=1;whiteSpace=wrap;html=1;shadow=0;labelBackgroundColor=none;strokeColor=none;strokeWidth=3;fillColor=#F08705;fontFamily=Helvetica;fontSize=14;fontColor=#FFFFFF;align=center;spacing=5;fontStyle=1;arcSize=7;perimeterSpacing=2;" vertex="1" parent="1">
          <mxGeometry x="-145" y="441" width="325" height="60" as="geometry" />
        </mxCell>
        <mxCell id="lf54vUO4yfvzCYdia2Iv-1783" value="Web" style="rounded=1;whiteSpace=wrap;html=1;shadow=0;labelBackgroundColor=none;strokeColor=none;strokeWidth=3;fillColor=#F08705;fontFamily=Helvetica;fontSize=14;fontColor=#FFFFFF;align=center;spacing=5;fontStyle=1;arcSize=7;perimeterSpacing=2;" vertex="1" parent="1">
          <mxGeometry x="195" y="441" width="150" height="60" as="geometry" />
        </mxCell>
        <mxCell id="lf54vUO4yfvzCYdia2Iv-1798" value="PsDataEditor" style="rounded=1;whiteSpace=wrap;html=1;shadow=0;labelBackgroundColor=none;strokeColor=none;strokeWidth=3;fillColor=#2F5B7C;fontFamily=Helvetica;fontSize=16;fontColor=#FFFFFF;align=center;fontStyle=1;spacing=5;arcSize=7;perimeterSpacing=2;verticalAlign=middle;" vertex="1" parent="1">
          <mxGeometry x="-440" y="260" width="160" height="40" as="geometry" />
        </mxCell>
        <mxCell id="lf54vUO4yfvzCYdia2Iv-1799" value="ASM" style="rounded=1;whiteSpace=wrap;html=1;shadow=0;labelBackgroundColor=none;strokeColor=none;strokeWidth=3;fillColor=#2F5B7C;fontFamily=Helvetica;fontSize=16;fontColor=#FFFFFF;align=center;fontStyle=1;spacing=5;arcSize=7;perimeterSpacing=2;verticalAlign=middle;" vertex="1" parent="1">
          <mxGeometry x="-440" y="320" width="80" height="40" as="geometry" />
        </mxCell>
        <mxCell id="lf54vUO4yfvzCYdia2Iv-1800" value="Authentication" style="rounded=1;whiteSpace=wrap;html=1;shadow=0;labelBackgroundColor=none;strokeColor=none;strokeWidth=3;fillColor=#e85642;fontFamily=Helvetica;fontSize=16;fontColor=#FFFFFF;align=center;spacing=5;fontStyle=1;arcSize=7;perimeterSpacing=2;" vertex="1" parent="1">
          <mxGeometry x="640" y="120" width="160" height="40" as="geometry" />
        </mxCell>
      </root>
    </mxGraphModel>
  </diagram>
</mxfile>
